<?xml version="1.0" encoding="UTF-8"?>
<!DOCTYPE svg PUBLIC "-//W3C//DTD SVG 1.1//EN" "http://www.w3.org/Graphics/SVG/1.1/DTD/svg11.dtd">
<svg xmlns="http://www.w3.org/2000/svg" version="1.1" width="48px" height="34px" style="shape-rendering:geometricPrecision; text-rendering:geometricPrecision; image-rendering:optimizeQuality; fill-rule:evenodd; clip-rule:evenodd" xmlns:xlink="http://www.w3.org/1999/xlink">
<g><path style="opacity:1" fill="#fffcfc" d="M -0.5,-0.5 C 15.5,-0.5 31.5,-0.5 47.5,-0.5C 47.5,10.8333 47.5,22.1667 47.5,33.5C 31.5,33.5 15.5,33.5 -0.5,33.5C -0.5,22.1667 -0.5,10.8333 -0.5,-0.5 Z"/></g>
<g><path style="opacity:1" fill="#fd5362" d="M 13.5,0.5 C 19.4968,7.53206 24.8301,15.1987 29.5,23.5C 27.5,24.8333 25.5,26.1667 23.5,27.5C 22.059,26.1349 20.7256,24.6349 19.5,23C 15.8484,22.5014 12.1817,22.3347 8.5,22.5C 8.61679,24.4835 7.95012,26.1502 6.5,27.5C 4.11843,26.6493 2.11843,25.316 0.5,23.5C 5.11046,15.9409 9.4438,8.27423 13.5,0.5 Z"/></g>
<g><path style="opacity:1" fill="#fd5a68" d="M 36.5,9.5 C 38.1667,9.5 39.8333,9.5 41.5,9.5C 41.5,10.8333 41.5,12.1667 41.5,13.5C 35.9596,13.5283 34.2929,16.0283 36.5,21C 38.4727,21.4955 40.4727,21.6621 42.5,21.5C 42.5,22.8333 42.5,24.1667 42.5,25.5C 39.8127,25.6641 37.146,25.4974 34.5,25C 30.4432,23.0527 28.9432,19.886 30,15.5C 31.4936,12.6865 33.6603,10.6865 36.5,9.5 Z"/></g>
<g><path style="opacity:1" fill="#fff6f7" d="M 13.5,12.5 C 15.7271,13.4006 16.7271,15.0672 16.5,17.5C 14.8008,17.6602 13.1341,17.4935 11.5,17C 12.5822,15.6703 13.2488,14.1703 13.5,12.5 Z"/></g>
</svg>
